{
.appVersion = "983";
copyright = "Copyright © 2014, 2015 Adobe Systems Incorporated (http://www.adobe.com/).";
customParameters = (
{
name = description;
value = "Dr. Ken Lunde (project architect, glyph set definition & overall production); Masataka HATTORI 服部正貴 (production & ideograph elements)";
},
{
name = license;
value = "This Font Software is licensed under the SIL Open Font License, Version 1.1. This Font Software is distributed on an \"AS IS\" BASIS, WITHOUT WARRANTIES OR CONDITIONS OF ANY KIND, either express or implied. See the SIL Open Font License for the specific language, permissions and limitations governing your use of this Font Software.";
},
{
name = licenseURL;
value = "http://scripts.sil.org/OFL";
},
{
name = vendorID;
value = GOOG;
},
{
name = panose;
value = (
2,
11,
2,
0,
0,
0,
0,
0,
0,
0
);
},
{
name = unicodeRanges;
value = (
0,
1,
28,
29,
36,
42,
43,
44,
45,
48,
49,
50,
51,
52,
54,
55,
56,
57,
59,
61,
65,
66,
68
);
},
{
name = codePageRanges;
value = (
1252,
1250,
1251,
1258,
932,
936,
949,
1361
);
},
{
name = ROS;
value = "Adobe, Identity, 0";
},
{
name = glyphOrder;
value = (
.notdef,
space
);
}
);
date = "2015-06-15 05:05:21 +0000";
designer = "Ryoko NISHIZUKA 西塚涼子 (kana & ideographs); Paul D. Hunt (Latin, Greek & Cyrillic); Wenlong ZHANG 张文龙 (bopomofo); Sandoll Communication 산돌커뮤니케이션, Soo-young JANG 장수영 & Joo-yeon KANG 강주연 (hangul elements, letters & syllables)";
designerURL = "http://www.adobe.com/type/";
familyName = "Yaku Han JP";
fontMaster = (
{
alignmentZones = (
"{1900, 0}",
"{1100, 0}",
"{1100, 0}",
"{1100, 0}",
"{1100, 0}",
"{1100, 0}",
"{1100, 0}",
"{1100, 0}",
"{1100, 0}",
"{1100, 0}",
"{1100, 0}",
"{1100, 0}",
"{726, 14}",
"{726, 13}",
"{726, 13}",
"{726, 12}",
"{726, 12}",
"{721, 0}",
"{704, 13}",
"{704, 12}",
"{527, 13}",
"{526, 14}",
"{526, 13}",
"{523, 0}",
"{0, 0}",
"{0, -12}",
"{0, -13}",
"{0, -13}",
"{0, -13}",
"{0, -14}",
"{0, -14}",
"{-210, 0}",
"{-224, -12}",
"{-243, -13}",
"{-243, -14}",
"{-250, 0}",

glyphs = (
{
glyphname = .notdef;
lastChange = "2017-04-15 13:11:54 +0000";
layers = (
{
layerId = "0651C370-C2E1-4295-9ACE-B281E7C91CB0";
paths = (
{
closed = 1;
nodes = (
"100 -120 LINE",
"900 -120 LINE",
"900 880 LINE",
"100 880 LINE"
);
},
{
closed = 1;
nodes = (
"500 421 LINE",
"182 830 LINE",
"818 830 LINE"
);
},
{
closed = 1;
nodes = (
"532 380 LINE",
"850 789 LINE",
"850 -29 LINE"
);
},
{
closed = 1;
nodes = (
"182 -70 LINE",
"500 339 LINE",
"818 -70 LINE"
);
},
{
closed = 1;
nodes = (
"150 789 LINE",
"468 380 LINE",
"150 -29 LINE"
);
}
);
width = 1000;
}
);
note = .notdef;
},
{
glyphname = "comma-han";
lastChange = "2017-04-15 13:11:54 +0000";
layers = (
{
layerId = "0651C370-C2E1-4295-9ACE-B281E7C91CB0";
paths = (
{
closed = 1;
nodes = (
"316 -19 LINE",
"242 65 OFFCURVE",
"158 148 OFFCURVE",
"85 206 CURVE",
"60 182 LINE",
"132 126 OFFCURVE",
"219 41 OFFCURVE",
"287 -43 CURVE"
);
}
);
vertWidth = 1000;
width = 546;
}
);
note = cid01390;
unicode = 3001;
},
{
glyphname = ellipsis;
lastChange = "2017-04-15 13:11:54 +0000";
layers = (
{
layerId = "0651C370-C2E1-4295-9ACE-B281E7C91CB0";
paths = (
{
closed = 1;
nodes = (
"117 352 OFFCURVE",
"139 330 OFFCURVE",
"167 330 CURVE SMOOTH",
"195 330 OFFCURVE",
"217 352 OFFCURVE",
"217 380 CURVE SMOOTH",
"217 408 OFFCURVE",
"195 430 OFFCURVE",
"167 430 CURVE SMOOTH",
"139 430 OFFCURVE",
"117 408 OFFCURVE",
"117 380 CURVE SMOOTH"
);
},
{
closed = 1;
nodes = (
"450 352 OFFCURVE",
"472 330 OFFCURVE",
"500 330 CURVE SMOOTH",
"528 330 OFFCURVE",
"550 352 OFFCURVE",
"550 380 CURVE SMOOTH",
"550 408 OFFCURVE",
"528 430 OFFCURVE",
"500 430 CURVE SMOOTH",
"472 430 OFFCURVE",
"450 408 OFFCURVE",
"450 380 CURVE SMOOTH"
);
},
{
closed = 1;
nodes = (
"783 352 OFFCURVE",
"805 330 OFFCURVE",
"833 330 CURVE SMOOTH",
"861 330 OFFCURVE",
"883 352 OFFCURVE",
"883 380 CURVE SMOOTH",
"883 408 OFFCURVE",
"861 430 OFFCURVE",
"833 430 CURVE SMOOTH",
"805 430 OFFCURVE",
"783 408 OFFCURVE",
"783 380 CURVE SMOOTH"
);
}
);
width = 1000;
}
);
note = cid00728;
unicode = 2026;
},
{
glyphname = "period-han";
lastChange = "2017-04-15 13:11:54 +0000";
layers = (
{
layerId = "0651C370-C2E1-4295-9ACE-B281E7C91CB0";
paths = (
{
closed = 1;
nodes = (
"145 240 OFFCURVE",
"80 176 OFFCURVE",
"80 97 CURVE SMOOTH",
"80 18 OFFCURVE",
"145 -46 OFFCURVE",
"223 -46 CURVE SMOOTH",
"302 -46 OFFCURVE",
"366 18 OFFCURVE",
"366 97 CURVE SMOOTH",
"366 176 OFFCURVE",
"302 240 OFFCURVE",
"223 240 CURVE SMOOTH"
);
},
{
closed = 1;
nodes = (
"161 -16 OFFCURVE",
"110 34 OFFCURVE",
"110 97 CURVE SMOOTH",
"110 159 OFFCURVE",
"161 210 OFFCURVE",
"223 210 CURVE SMOOTH",
"286 210 OFFCURVE",
"336 159 OFFCURVE",
"336 97 CURVE SMOOTH",
"336 34 OFFCURVE",
"286 -16 OFFCURVE",
"223 -16 CURVE SMOOTH"
);
}
);
vertWidth = 1000;
width = 766;
}
);
note = cid01391;
unicode = 3002;
},
{
glyphname = colon.full;
lastChange = "2017-04-15 13:11:54 +0000";
layers = (
{
layerId = "0651C370-C2E1-4295-9ACE-B281E7C91CB0";
paths = (
{
closed = 1;
nodes = (
"284 572 OFFCURVE",
"312 591 OFFCURVE",
"312 628 CURVE SMOOTH",
"312 665 OFFCURVE",
"284 684 OFFCURVE",
"256 684 CURVE SMOOTH",
"228 684 OFFCURVE",
"200 665 OFFCURVE",
"200 628 CURVE SMOOTH",
"200 591 OFFCURVE",
"228 572 OFFCURVE",
"256 572 CURVE SMOOTH"
);
},
{
closed = 1;
nodes = (
"284 70 OFFCURVE",
"312 89 OFFCURVE",
"312 126 CURVE SMOOTH",
"312 163 OFFCURVE",
"284 182 OFFCURVE",
"256 182 CURVE SMOOTH",
"228 182 OFFCURVE",
"200 163 OFFCURVE",
"200 126 CURVE SMOOTH",
"200 89 OFFCURVE",
"228 70 OFFCURVE",
"256 70 CURVE SMOOTH"
);
}
);
vertWidth = 1000;
width = 512;
}
);
note = cid59017;
unicode = FF1A;
},
{
glyphname = exclam.full;
lastChange = "2017-04-15 13:11:54 +0000";
layers = (
{
layerId = "0651C370-C2E1-4295-9ACE-B281E7C91CB0";
paths = (
{
closed = 1;
nodes = (
"242 226 LINE",
"270 226 LINE",
"284 660 LINE",
"284 748 LINE",
"228 748 LINE",
"228 660 LINE"
);
},
{
closed = 1;
nodes = (
"284 0 OFFCURVE",
"312 20 OFFCURVE",
"312 58 CURVE SMOOTH",
"312 96 OFFCURVE",
"284 116 OFFCURVE",
"256 116 CURVE SMOOTH",
"228 116 OFFCURVE",
"200 96 OFFCURVE",
"200 58 CURVE SMOOTH",
"200 20 OFFCURVE",
"228 0 OFFCURVE",
"256 0 CURVE SMOOTH"
);
}
);
width = 442;
}
);
note = cid58992;
unicode = FF01;
},
{
glyphname = question.full;
lastChange = "2017-04-15 13:11:54 +0000";
layers = (
{
layerId = "0651C370-C2E1-4295-9ACE-B281E7C91CB0";
paths = (
{
closed = 1;
nodes = (
"436 226 LINE",
"399 388 OFFCURVE",
"658 432 OFFCURVE",
"658 588 CURVE SMOOTH",
"658 685 OFFCURVE",
"583 762 OFFCURVE",
"446 762 CURVE SMOOTH",
"336 762 OFFCURVE",
"268 718 OFFCURVE",
"200 652 CURVE",
"225 628 LINE",
"292 698 OFFCURVE",
"368 730 OFFCURVE",
"444 730 CURVE SMOOTH",
"569 730 OFFCURVE",
"620 664 OFFCURVE",
"620 586 CURVE SMOOTH",
"620 456 OFFCURVE",
"362 402 OFFCURVE",
"402 226 CURVE"
);
},
{
closed = 1;
nodes = (
"366 20 OFFCURVE",
"394 0 OFFCURVE",
"422 0 CURVE SMOOTH",
"450 0 OFFCURVE",
"478 20 OFFCURVE",
"478 58 CURVE SMOOTH",
"478 96 OFFCURVE",
"450 116 OFFCURVE",
"422 116 CURVE SMOOTH",
"394 116 OFFCURVE",
"366 96 OFFCURVE",
"366 58 CURVE SMOOTH"
);
}
);
width = 788;
}
);
note = cid59022;
unicode = FF1F;
},
{
glyphname = semicolon.full;
lastChange = "2017-04-15 13:11:54 +0000";
layers = (
{
layerId = "0651C370-C2E1-4295-9ACE-B281E7C91CB0";
paths = (
{
closed = 1;
nodes = (
"320 572 OFFCURVE",
"348 591 OFFCURVE",
"348 628 CURVE SMOOTH",
"348 665 OFFCURVE",
"320 684 OFFCURVE",
"292 684 CURVE SMOOTH",
"264 684 OFFCURVE",
"236 665 OFFCURVE",
"236 628 CURVE SMOOTH",
"236 591 OFFCURVE",
"264 572 OFFCURVE",
"292 572 CURVE SMOOTH"
);
},
{
closed = 1;
nodes = (
"213 -76 LINE",
"300 -36 OFFCURVE",
"361 38 OFFCURVE",
"361 147 CURVE SMOOTH",
"361 203 OFFCURVE",
"339 240 OFFCURVE",
"298 240 CURVE SMOOTH",
"271 240 OFFCURVE",
"245 224 OFFCURVE",
"245 186 CURVE SMOOTH",
"245 149 OFFCURVE",
"267 133 OFFCURVE",
"299 133 CURVE SMOOTH",
"307 133 OFFCURVE",
"315 134 OFFCURVE",
"323 137 CURVE",
"320 45 OFFCURVE",
"279 -10 OFFCURVE",
"200 -51 CURVE"
);
}
);
vertWidth = 1000;
width = 561;
}
);
note = cid59018;
unicode = FF1B;
},
{
glyphname = anglebracketleft;
lastChange = "2017-04-15 13:11:54 +0000";
layers = (
{
layerId = "0651C370-C2E1-4295-9ACE-B281E7C91CB0";
paths = (
{
closed = 1;
nodes = (
"237 380 LINE",
"535 825 LINE",
"508 840 LINE",
"200 380 LINE",
"508 -80 LINE",
"535 -65 LINE"
);
}
);
vertWidth = 1000;
width = 585;
}
);
note = cid01397;
unicode = 3008;
},
{
glyphname = anglebracketright;
lastChange = "2017-04-15 13:11:54 +0000";
layers = (
{
layerId = "0651C370-C2E1-4295-9ACE-B281E7C91CB0";
paths = (
{
closed = 1;
nodes = (
"77 -80 LINE",
"385 380 LINE",
"77 840 LINE",
"50 825 LINE",
"348 380 LINE",
"50 -65 LINE"
);
}
);
vertWidth = 1000;
width = 585;
}
);
note = cid01398;
unicode = 3009;
},
{
glyphname = blacklenticularbracketleft;
lastChange = "2017-04-15 13:11:54 +0000";
layers = (
{
layerId = "0651C370-C2E1-4295-9ACE-B281E7C91CB0";
paths = (
{
closed = 1;
nodes = (
"200 840 LINE",
"200 -80 LINE",
"488 -80 LINE",
"488 -75 LINE",
"379 16 OFFCURVE",
"290 180 OFFCURVE",
"290 380 CURVE SMOOTH",
"290 580 OFFCURVE",
"379 744 OFFCURVE",
"488 835 CURVE",
"488 840 LINE"
);
}
);
vertWidth = 1000;
width = 528;
}
);
note = cid01405;
unicode = 3010;
},
{
glyphname = blacklenticularbracketright;
lastChange = "2017-04-15 13:11:54 +0000";
layers = (
{
layerId = "0651C370-C2E1-4295-9ACE-B281E7C91CB0";
paths = (
{
closed = 1;
nodes = (
"328 840 LINE",
"40 840 LINE",
"40 835 LINE",
"149 744 OFFCURVE",
"238 580 OFFCURVE",
"238 380 CURVE SMOOTH",
"238 180 OFFCURVE",
"149 16 OFFCURVE",
"40 -75 CURVE",
"40 -80 LINE",
"328 -80 LINE"
);
}
);
vertWidth = 1000;
width = 528;
}
);
note = cid01406;
unicode = 3011;
},
{
glyphname = braceleft.full;
lastChange = "2017-04-15 13:11:54 +0000";
layers = (
{
layerId = "0651C370-C2E1-4295-9ACE-B281E7C91CB0";
paths = (
{
closed = 1;
nodes = (
"438 -94 LINE",
"438 -68 LINE",
"403 -68 LINE SMOOTH",
"334 -68 OFFCURVE",
"316 -28 OFFCURVE",
"316 50 CURVE SMOOTH",
"316 122 OFFCURVE",
"323 184 OFFCURVE",
"323 265 CURVE SMOOTH",
"323 327 OFFCURVE",
"312 365 OFFCURVE",
"269 378 CURVE",
"269 382 LINE",
"312 395 OFFCURVE",
"323 433 OFFCURVE",
"323 495 CURVE SMOOTH",
"323 576 OFFCURVE",
"316 637 OFFCURVE",
"316 710 CURVE SMOOTH",
"316 789 OFFCURVE",
"334 828 OFFCURVE",
"403 828 CURVE SMOOTH",
"438 828 LINE",
"438 854 LINE",
"404 854 LINE SMOOTH",
"325 854 OFFCURVE",
"285 824 OFFCURVE",
"285 714 CURVE SMOOTH",
"285 633 OFFCURVE",
"294 561 OFFCURVE",
"294 482 CURVE SMOOTH",
"294 438 OFFCURVE",
"277 394 OFFCURVE",
"200 394 CURVE",
"200 366 LINE",
"277 366 OFFCURVE",
"294 322 OFFCURVE",
"294 278 CURVE SMOOTH",
"294 201 OFFCURVE",
"285 128 OFFCURVE",
"285 46 CURVE SMOOTH",
"285 -64 OFFCURVE",
"325 -94 OFFCURVE",
"404 -94 CURVE SMOOTH"
);
}
);
vertWidth = 1000;
width = 478;
}
);
note = cid59082;
unicode = FF5B;
},
{
glyphname = braceright.full;
lastChange = "2017-04-15 13:11:54 +0000";
layers = (
{
layerId = "0651C370-C2E1-4295-9ACE-B281E7C91CB0";
paths = (
{
closed = 1;
nodes = (
"74 -94 LINE SMOOTH",
"153 -94 OFFCURVE",
"193 -64 OFFCURVE",
"193 46 CURVE SMOOTH",
"193 128 OFFCURVE",
"184 201 OFFCURVE",
"184 278 CURVE SMOOTH",
"184 322 OFFCURVE",
"201 366 OFFCURVE",
"278 366 CURVE",
"278 394 LINE",
"201 394 OFFCURVE",
"184 438 OFFCURVE",
"184 482 CURVE SMOOTH",
"184 561 OFFCURVE",
"193 633 OFFCURVE",
"193 714 CURVE SMOOTH",
"193 824 OFFCURVE",
"153 854 OFFCURVE",
"74 854 CURVE SMOOTH",
"40 854 LINE",
"40 828 LINE",
"75 828 LINE SMOOTH",
"144 828 OFFCURVE",
"162 789 OFFCURVE",
"162 710 CURVE SMOOTH",
"162 637 OFFCURVE",
"155 576 OFFCURVE",
"155 495 CURVE SMOOTH",
"155 433 OFFCURVE",
"166 395 OFFCURVE",
"209 382 CURVE",
"209 378 LINE",
"166 365 OFFCURVE",
"155 327 OFFCURVE",
"155 265 CURVE SMOOTH",
"155 184 OFFCURVE",
"162 122 OFFCURVE",
"162 50 CURVE SMOOTH",
"162 -28 OFFCURVE",
"144 -68 OFFCURVE",
"75 -68 CURVE SMOOTH",
"40 -68 LINE",
"40 -94 LINE"
);
}
);
vertWidth = 1000;
width = 478;
}
);
note = cid59084;
unicode = FF5D;
},
{
glyphname = cornerbracketleft;
lastChange = "2017-04-15 13:11:54 +0000";
layers = (
{
layerId = "0651C370-C2E1-4295-9ACE-B281E7C91CB0";
paths = (
{
closed = 1;
nodes = (
"200 186 LINE",
"230 186 LINE",
"230 810 LINE",
"500 810 LINE",
"500 840 LINE",
"200 840 LINE"
);
}
);
vertWidth = 1000;
width = 540;
}
);
note = cid01401;
unicode = 300C;
},
{
glyphname = cornerbracketright;
lastChange = "2017-04-15 13:11:54 +0000";
layers = (
{
layerId = "0651C370-C2E1-4295-9ACE-B281E7C91CB0";
paths = (
{
closed = 1;
nodes = (
"340 574 LINE",
"310 574 LINE",
"310 -50 LINE",
"40 -50 LINE",
"40 -80 LINE",
"340 -80 LINE"
);
}
);
vertWidth = 1000;
width = 540;
}
);
note = cid01402;
unicode = 300D;
},
{
glyphname = dblanglebracketleft;
lastChange = "2017-04-15 13:11:54 +0000";
layers = (
{
layerId = "0651C370-C2E1-4295-9ACE-B281E7C91CB0";
paths = (
{
closed = 1;
nodes = (
"85 380 LINE",
"326 830 LINE",
"301 840 LINE",
"55 380 LINE",
"301 -80 LINE",
"326 -70 LINE"
);
},
{
closed = 1;
nodes = (
"228 380 LINE",
"469 830 LINE",
"444 840 LINE",
"198 380 LINE",
"444 -80 LINE",
"469 -70 LINE"
);
}
);
vertWidth = 1000;
width = 514;
}
);
note = cid01399;
unicode = 300A;
},
{
glyphname = dblanglebracketright;
lastChange = "2017-04-15 13:11:54 +0000";
layers = (
{
layerId = "0651C370-C2E1-4295-9ACE-B281E7C91CB0";
paths = (
{
closed = 1;
nodes = (
"213 -80 LINE",
"459 380 LINE",
"213 840 LINE",
"188 830 LINE",
"429 380 LINE",
"188 -70 LINE"
);
},
{
closed = 1;
nodes = (
"70 -80 LINE",
"316 380 LINE",
"70 840 LINE",
"45 830 LINE",
"286 380 LINE",
"45 -70 LINE"
);
}
);
vertWidth = 1000;
width = 514;
}
);
note = cid01400;
unicode = 300B;
},
{
glyphname = tortoiseshellbracketleft;
lastChange = "2017-04-15 13:11:54 +0000";
layers = (
{
layerId = "0651C370-C2E1-4295-9ACE-B281E7C91CB0";
paths = (
{
closed = 1;
nodes = (
"398 -91 LINE",
"416 -66 LINE",
"231 52 LINE",
"231 708 LINE",
"416 826 LINE",
"398 851 LINE",
"200 722 LINE",
"200 38 LINE"
);
}
);
vertWidth = 1000;
width = 468;
}
);
note = cid01409;
unicode = 3014;
},
{
glyphname = tortoiseshellbracketright;
lastChange = "2017-04-15 13:11:54 +0000";
layers = (
{
layerId = "0651C370-C2E1-4295-9ACE-B281E7C91CB0";
paths = (
{
closed = 1;
nodes = (
"268 38 LINE",
"268 722 LINE",
"70 851 LINE",
"52 826 LINE",
"237 708 LINE",
"237 52 LINE",
"52 -66 LINE",
"70 -91 LINE"
);
}
);
vertWidth = 1000;
width = 468;
}
);
note = cid01410;
unicode = 3015;
},
{
glyphname = whitecornerbracketleft;
lastChange = "2017-04-15 13:11:54 +0000";
layers = (
{
layerId = "0651C370-C2E1-4295-9ACE-B281E7C91CB0";
paths = (
{
closed = 1;
nodes = (
"561 706 LINE",
"561 840 LINE",
"200 840 LINE",
"200 176 LINE",
"349 176 LINE",
"349 706 LINE"
);
},
{
closed = 1;
nodes = (
"539 818 LINE",
"539 728 LINE",
"327 728 LINE",
"327 198 LINE",
"222 198 LINE",
"222 818 LINE"
);
}
);
vertWidth = 1000;
width = 601;
}
);
note = cid01403;
unicode = 300E;
},
{
glyphname = whitecornerbracketright;
lastChange = "2017-04-15 13:11:54 +0000";
layers = (
{
layerId = "0651C370-C2E1-4295-9ACE-B281E7C91CB0";
paths = (
{
closed = 1;
nodes = (
"40 54 LINE",
"40 -80 LINE",
"401 -80 LINE",
"401 584 LINE",
"252 584 LINE",
"252 54 LINE"
);
},
{
closed = 1;
nodes = (
"62 -58 LINE",
"62 32 LINE",
"274 32 LINE",
"274 562 LINE",
"379 562 LINE",
"379 -58 LINE"
);
}
);
vertWidth = 1000;
width = 601;
}
);
note = cid01404;
unicode = 300F;
},
{
glyphname = whitelenticularbracketleft;
lastChange = "2017-04-15 13:11:54 +0000";
layers = (
{
layerId = "0651C370-C2E1-4295-9ACE-B281E7C91CB0";
paths = (
{
closed = 1;
nodes = (
"543 -63 LINE",
"385 8 OFFCURVE",
"280 161 OFFCURVE",
"280 380 CURVE SMOOTH",
"280 599 OFFCURVE",
"385 752 OFFCURVE",
"543 823 CURVE",
"543 840 LINE",
"200 840 LINE",
"200 -80 LINE",
"543 -80 LINE"
);
},
{
closed = 1;
nodes = (
"222 -58 LINE",
"222 818 LINE",
"484 818 LINE",
"388 760 OFFCURVE",
"258 628 OFFCURVE",
"258 380 CURVE SMOOTH",
"258 132 OFFCURVE",
"388 0 OFFCURVE",
"484 -58 CURVE"
);
}
);
vertWidth = 1000;
width = 583;
}
);
note = cid01411;
unicode = 3016;
},
{
glyphname = whitelenticularbracketright;
lastChange = "2017-04-15 13:11:54 +0000";
layers = (
{
layerId = "0651C370-C2E1-4295-9ACE-B281E7C91CB0";
paths = (
{
closed = 1;
nodes = (
"40 -80 LINE",
"383 -80 LINE",
"383 840 LINE",
"40 840 LINE",
"40 823 LINE",
"198 752 OFFCURVE",
"303 599 OFFCURVE",
"303 380 CURVE SMOOTH",
"303 161 OFFCURVE",
"198 8 OFFCURVE",
"40 -63 CURVE"
);
},
{
closed = 1;
nodes = (
"99 -58 LINE",
"195 0 OFFCURVE",
"325 132 OFFCURVE",
"325 380 CURVE SMOOTH",
"325 628 OFFCURVE",
"195 760 OFFCURVE",
"99 818 CURVE",
"361 818 LINE",
"361 -58 LINE"
);
}
);
vertWidth = 1000;
width = 583;
}
);
note = cid01412;
unicode = 3017;
},
{
glyphname = bracketleft.full;
lastChange = "2017-04-15 13:11:54 +0000";
layers = (
{
layerId = "0651C370-C2E1-4295-9ACE-B281E7C91CB0";
paths = (
{
closed = 1;
nodes = (
"200 -80 LINE",
"450 -80 LINE",
"450 -54 LINE",
"230 -54 LINE",
"230 814 LINE",
"450 814 LINE",
"450 840 LINE",
"200 840 LINE"
);
}
);
vertWidth = 1000;
width = 490;
}
);
note = cid59050;
unicode = FF3B;
},
{
glyphname = bracketright.full;
lastChange = "2017-04-15 13:11:54 +0000";
layers = (
{
layerId = "0651C370-C2E1-4295-9ACE-B281E7C91CB0";
paths = (
{
closed = 1;
nodes = (
"290 840 LINE",
"40 840 LINE",
"40 814 LINE",
"260 814 LINE",
"260 -54 LINE",
"40 -54 LINE",
"40 -80 LINE",
"290 -80 LINE"
);
}
);
vertWidth = 1000;
width = 490;
}
);
note = cid59052;
unicode = FF3D;
},
{
glyphname = parenleft.full;
lastChange = "2017-04-15 13:11:54 +0000";
layers = (
{
layerId = "0651C370-C2E1-4295-9ACE-B281E7C91CB0";
paths = (
{
closed = 1;
nodes = (
"426 -72 LINE",
"296 59 OFFCURVE",
"232 215 OFFCURVE",
"232 380 CURVE SMOOTH",
"232 545 OFFCURVE",
"296 701 OFFCURVE",
"426 832 CURVE",
"401 851 LINE",
"269 714 OFFCURVE",
"200 557 OFFCURVE",
"200 380 CURVE SMOOTH",
"200 203 OFFCURVE",
"269 46 OFFCURVE",
"401 -91 CURVE"
);
}
);
vertWidth = 1000;
width = 473;
}
);
note = cid58999;
unicode = FF08;
},
{
glyphname = parenright.full;
lastChange = "2017-04-15 13:11:54 +0000";
layers = (
{
layerId = "0651C370-C2E1-4295-9ACE-B281E7C91CB0";
paths = (
{
closed = 1;
nodes = (
"47 832 LINE",
"177 701 OFFCURVE",
"241 545 OFFCURVE",
"241 380 CURVE SMOOTH",
"241 215 OFFCURVE",
"177 59 OFFCURVE",
"47 -72 CURVE",
"72 -91 LINE",
"204 46 OFFCURVE",
"273 203 OFFCURVE",
"273 380 CURVE SMOOTH",
"273 557 OFFCURVE",
"204 714 OFFCURVE",
"72 851 CURVE"
);
}
);
vertWidth = 1000;
width = 473;
}
);
note = cid59000;
unicode = FF09;
},
{
glyphname = "dot-kata";
lastChange = "2017-04-15 13:11:54 +0000";
layers = (
{
layerId = "0651C370-C2E1-4295-9ACE-B281E7C91CB0";
paths = (
{
closed = 1;
nodes = (
"200 333 OFFCURVE",
"238 295 OFFCURVE",
"285 295 CURVE SMOOTH",
"332 295 OFFCURVE",
"370 333 OFFCURVE",
"370 380 CURVE SMOOTH",
"370 427 OFFCURVE",
"332 465 OFFCURVE",
"285 465 CURVE SMOOTH",
"238 465 OFFCURVE",
"200 427 OFFCURVE",
"200 380 CURVE SMOOTH"
);
}
